<?xml version="1.0" encoding="UTF-8" standalone="no"?>
<!-- Created with Inkscape (http://www.inkscape.org/) -->

<svg
   width="51.961514mm"
   height="60.070496mm"
   viewBox="0 0 51.961514 60.070496"
   version="1.1"
   id="svg1"
   xml:space="preserve"
   sodipodi:docname="未命名文件 2"
   xmlns:inkscape="http://www.inkscape.org/namespaces/inkscape"
   xmlns:sodipodi="http://sodipodi.sourceforge.net/DTD/sodipodi-0.dtd"
   xmlns="http://www.w3.org/2000/svg"
   xmlns:svg="http://www.w3.org/2000/svg"><sodipodi:namedview
     id="namedview1"
     pagecolor="#ffffff"
     bordercolor="#000000"
     borderopacity="0.25"
     inkscape:showpageshadow="2"
     inkscape:pageopacity="0.0"
     inkscape:pagecheckerboard="0"
     inkscape:deskcolor="#d1d1d1"
     inkscape:document-units="mm"
     showgrid="true"
     inkscape:lockguides="false"><inkscape:grid
       type="axonomgrid"
       id="grid21"
       units="mm"
       originx="-35.598354"
       originy="-201.09306"
       spacingx="0.99999998"
       spacingy="1"
       empcolor="#0099e5"
       empopacity="0.30196078"
       color="#0099e5"
       opacity="0.14901961"
       empspacing="5"
       dotted="false"
       gridanglex="30"
       gridanglez="30"
       enabled="true"
       visible="true" /><inkscape:page
       x="0"
       y="0"
       width="51.961514"
       height="60.070496"
       id="page2"
       margin="0"
       bleed="0" /></sodipodi:namedview><defs
     id="defs1"><inkscape:path-effect
       effect="perspective-envelope"
       up_left_point="42.435244,227.49999"
       up_right_point="55.425624,234.99999"
       down_left_point="42.552914,245.52258"
       down_right_point="55.425624,252.99999"
       id="path-effect3"
       is_visible="true"
       lpeversion="1"
       deform_type="perspective"
       horizontal_mirror="false"
       vertical_mirror="false"
       overflow_perspective="false" /><inkscape:path-effect
       effect="perspective-envelope"
       up_left_point="109.52589,52.567654"
       up_right_point="120.78422,46.067654"
       down_left_point="109.52589,61.567654"
       down_right_point="120.78422,55.067654"
       id="path-effect74-9-3-7"
       is_visible="true"
       lpeversion="1"
       deform_type="perspective"
       horizontal_mirror="false"
       vertical_mirror="false"
       overflow_perspective="false" /><inkscape:path-effect
       effect="perspective-envelope"
       up_left_point="142.91683,76.882773"
       up_right_point="161.96939,65.882774"
       down_left_point="142.91683,86.882773"
       down_right_point="161.96939,75.882773"
       id="path-effect75-5-1-5"
       is_visible="true"
       lpeversion="1"
       deform_type="perspective"
       horizontal_mirror="false"
       vertical_mirror="false"
       overflow_perspective="false" /></defs><g
     inkscape:label="圖層 1"
     inkscape:groupmode="layer"
     id="layer1"
     transform="translate(-35.598357,-201.09307)"><path
       style="fill:#e2a147;fill-opacity:1;stroke:none;stroke-width:0.264999;stroke-dasharray:none;stroke-opacity:1"
       d="m 35.59836,216.09306 25.98076,-15 25.98076,15 -25.98076,15 z"
       id="path55-1-6-2"
       inkscape:export-filename="IMA logo.png"
       inkscape:export-xdpi="96"
       inkscape:export-ydpi="96" /><path
       style="fill:#996b2c;fill-opacity:1;stroke:none;stroke-width:0.264999;stroke-dasharray:none;stroke-opacity:1"
       d="m 87.55988,216.09306 v 4 l -25.98076,15 -25.98076,-15 c 0,-1.33333 0,-2.66667 0,-4 l 25.98076,14.99999 z"
       id="path56-2-5-5"
       sodipodi:nodetypes="ccccc" /><ellipse
       style="fill:#784421;stroke:none;stroke-width:0.264999;stroke-dasharray:none;stroke-opacity:1"
       id="path61-1-0-7"
       cx="38.196438"
       cy="246.59305"
       rx="1.7320508"
       ry="1.0704662" /><ellipse
       style="fill:#784421;fill-opacity:1;stroke:none;stroke-width:0.264999;stroke-dasharray:none;stroke-opacity:1"
       id="path64-3-2-4"
       cx="61.579128"
       cy="260.09308"
       rx="1.7320539"
       ry="1.0704681" /><ellipse
       style="fill:#784421;fill-opacity:1;stroke:none;stroke-width:0.264999;stroke-dasharray:none;stroke-opacity:1"
       id="path65-8-4-4"
       cx="84.961807"
       cy="246.59305"
       rx="1.732049"
       ry="1.0704652" /><path
       d="m 110.43382,60.892622 0.36317,-8.933139 -0.90793,0.398492 -0.36317,8.933143 z m 1.2257,-2.216041 -0.0908,1.5608 0.90794,-0.373359 0.0908,-1.560797 z m 7.39963,-2.889493 -0.36317,-8.513791 -0.90793,0.649893 -1.60401,7.53781 -0.78687,-6.283131 -0.90793,0.649892 -1.21057,9.145849 0.49936,-0.01177 0.86253,-6.531502 0.71122,5.446921 0.90792,-0.649887 1.60402,-7.512671 0.28751,6.722273 z m 0.81713,-1.854456 -0.0908,1.560794 0.90792,-0.373349 0.0908,-1.560804 z"
       id="text74-2-5-4"
       style="font-size:18.1257px;font-family:'Magic R';-inkscape-font-specification:'Magic R, Normal';fill:#f4a714;fill-opacity:1;stroke:#efb423;stroke-width:0;stroke-opacity:1"
       aria-label="I.M."
       inkscape:path-effect="#path-effect74-9-3-7"
       inkscape:original-d="m 111.2135,84.184224 0.72291,-10.652019 -1.80728,-0.153488 -0.72292,10.65202 z m 2.43984,-1.841848 -0.18073,1.841848 1.8073,0.184185 0.18072,-1.841849 z m 14.7294,1.688361 -0.7229,-10.65202 -1.80729,0.153488 -3.19289,8.073432 -1.56631,-8.22692 -1.80729,0.153488 -2.40971,10.314347 0.99401,0.337672 1.71692,-7.367391 1.41572,7.152509 1.80727,-0.153488 3.19289,-8.042735 0.57231,8.411105 z m 1.62656,-1.688361 -0.18071,1.841848 1.80727,0.184185 0.18074,-1.841849 z"
       transform="translate(-41.884592,181.0254)" /><path
       d="m 145.08836,75.769888 -2.17153,10.69035 0.36192,0.213579 0.8014,-3.927474 1.20209,-1.003887 0.11633,3.622976 0.77555,-0.588606 -0.31022,-9.595544 z m 0.0517,1.744798 0.11633,3.397623 -0.96943,0.841394 z m 2.19737,-3.184148 -0.0905,2.756461 -0.56874,0.441036 0.0388,0.850858 0.5041,-0.403718 -0.19389,6.309122 0.73677,-0.284529 0.20681,-6.626444 0.67214,-0.557075 -0.0388,-0.850857 -0.59459,0.484126 0.0646,-2.403509 z m 3.48996,0.294933 c -0.51703,0.298507 -0.93066,0.922289 -1.24088,1.871347 -0.3016,0.925304 -0.4524,1.998285 -0.4524,3.218942 0,1.070423 0.15942,1.832843 0.47825,2.28726 0.31884,0.435639 0.7023,0.524105 1.1504,0.265399 0.43085,-0.248756 0.78416,-0.687478 1.05991,-1.316167 0.28436,-0.652441 0.48687,-1.492361 0.60751,-2.519758 l -0.56873,0.610046 c -0.0603,0.579428 -0.18958,1.0672 -0.38778,1.463318 -0.18957,0.372363 -0.405,0.628196 -0.64628,0.7675 -0.23267,0.134328 -0.44379,0.05904 -0.63337,-0.225878 -0.18957,-0.284914 -0.29298,-0.807371 -0.31022,-1.567373 l 2.48175,-2.024385 c 0,-1.126761 -0.13787,-1.948568 -0.41362,-2.465421 -0.26714,-0.521826 -0.64198,-0.643436 -1.12454,-0.36483 z m 0,0.957746 c 0.23266,-0.134327 0.42223,-0.07476 0.56873,0.178686 0.15511,0.248476 0.23697,0.727033 0.24559,1.435673 l -1.75791,1.409292 c 0.0345,-0.827413 0.13788,-1.497444 0.31022,-2.010092 0.17235,-0.531427 0.38347,-0.869281 0.63337,-1.013559 z m 3.30899,4.48392 -0.0388,-0.822689 -0.31022,0.235442 0.25851,-8.909816 -0.73676,0.340869 -0.28437,10.051502 z m 0.73676,-9.946497 0.0517,1.519443 0.73677,-0.566219 -0.0517,-1.519443 z m 0.0259,3.055491 -0.19389,6.675322 0.73677,-0.284528 0.19388,-6.675319 z m 3.05048,-2.662601 c -0.51703,0.298508 -0.93066,0.92229 -1.24088,1.871347 -0.30159,0.925303 -0.45239,1.998282 -0.45239,3.21894 0,1.070422 0.15941,1.832843 0.47824,2.287262 0.31884,0.435639 0.7023,0.524105 1.1504,0.2654 0.43085,-0.248756 0.78416,-0.687479 1.05991,-1.316168 0.28437,-0.652441 0.48687,-1.49236 0.60751,-2.519758 l -0.56873,0.610047 c -0.0603,0.579427 -0.18958,1.0672 -0.38778,1.463317 -0.18957,0.372363 -0.405,0.628196 -0.64628,0.7675 -0.23267,0.134329 -0.44379,0.05904 -0.63336,-0.225878 -0.18958,-0.284913 -0.29299,-0.807371 -0.31023,-1.567373 l 2.48175,-2.024385 c 0,-1.12676 -0.13787,-1.948567 -0.41362,-2.46542 -0.26713,-0.521828 -0.64198,-0.643438 -1.12454,-0.364831 z m 0,0.957746 c 0.23266,-0.134328 0.42224,-0.07477 0.56873,0.178687 0.15511,0.248475 0.23697,0.727033 0.24559,1.435672 l -1.75791,1.409293 c 0.0345,-0.827414 0.13788,-1.497445 0.31023,-2.010092 0.17234,-0.531428 0.38346,-0.869281 0.63336,-1.01356 z m 3.91649,-2.82457 c -0.13787,0.117158 -0.28867,0.298119 -0.45239,0.542882 -0.15511,0.239787 -0.26714,0.454699 -0.33608,0.644735 l 0.0259,-0.803662 -0.73676,0.284526 -0.23266,7.401934 0.73676,-0.284529 0.12926,-4.130964 c 0.0689,-0.678298 0.18096,-1.250016 0.33607,-1.715155 0.15511,-0.483918 0.36623,-0.906279 0.63336,-1.26708 z"
       id="text75-7-0-4"
       style="font-size:14.2546px;font-family:'Magic R';-inkscape-font-specification:'Magic R, Normal';fill:#f4a714;fill-opacity:1;stroke:#000000;stroke-width:0"
       aria-label="Atelier"
       inkscape:path-effect="#path-effect75-5-1-5"
       inkscape:original-d="m 149.83508,80.062529 -4.67729,9.32674 0.77955,0.417615 1.72614,-3.424445 2.58921,-0.306251 0.25057,3.647173 1.67046,-0.139205 -0.66818,-9.660832 z m 0.11136,1.753984 0.25057,3.424444 -2.08808,0.278411 z m 4.73297,-1.893189 -0.19488,2.672737 -1.22501,0.111364 0.0835,0.863072 1.08579,-0.111364 -0.41761,6.125023 1.58694,0.139205 0.44545,-6.431275 1.44774,-0.167046 -0.0835,-0.863071 -1.28068,0.139205 0.1392,-2.338645 z m 7.51708,2.282963 q -1.67046,0 -2.67274,1.141481 -0.97444,1.113641 -0.97444,2.923307 0,1.586938 1.03012,2.533532 1.03012,0.918754 2.47785,0.918754 1.39205,0 2.28297,-0.696026 0.91875,-0.723866 1.30852,-2.143758 l -1.225,0.27841 q -0.19489,0.80739 -0.83523,1.225005 -0.6125,0.389774 -1.39205,0.389774 -0.75171,0 -1.36421,-0.584661 -0.6125,-0.584661 -0.66819,-1.726143 l 5.34548,-0.584661 q 0,-1.670461 -0.89091,-2.672738 -0.86308,-1.002276 -2.42217,-1.002276 z m 0,0.946594 q 0.7517,0 1.225,0.501139 0.50114,0.501138 0.52898,1.559096 l -3.78638,0.389775 q 0.11137,-1.197164 0.66819,-1.809666 0.55682,-0.640344 1.36421,-0.640344 z m 7.1273,6.319911 -0.0835,-0.835231 -0.66819,0.05568 0.55682,-8.658555 -1.58694,-0.08352 -0.6125,9.772196 z m 1.58693,-9.410263 0.11137,1.531256 1.58694,-0.139206 -0.11137,-1.531255 z m 0.0557,3.03467 -0.41762,6.486957 1.58694,0.139205 0.41761,-6.486957 z m 6.57048,-0.890912 q -1.67046,0 -2.67274,1.141481 -0.97443,1.113641 -0.97443,2.923307 0,1.586938 1.03011,2.533532 1.03012,0.918754 2.47785,0.918754 1.39205,0 2.28297,-0.696026 0.91875,-0.723866 1.30852,-2.143758 l -1.225,0.27841 q -0.19489,0.80739 -0.83523,1.225005 -0.6125,0.389774 -1.39205,0.389774 -0.75171,0 -1.36421,-0.584661 -0.6125,-0.584661 -0.66819,-1.726143 l 5.34548,-0.584661 q 0,-1.670461 -0.89091,-2.672738 -0.86307,-1.002276 -2.42217,-1.002276 z m 0,0.946594 q 0.75171,0 1.225,0.501139 0.50114,0.501138 0.52898,1.559096 l -3.78638,0.389775 q 0.11137,-1.197164 0.66819,-1.809666 0.55682,-0.640344 1.36421,-0.640344 z m 8.43582,-0.55682 q -0.44545,0.05568 -0.97443,0.27841 -0.50114,0.222728 -0.72387,0.445456 l 0.0557,-0.779548 -1.58693,-0.139205 -0.50114,7.182982 1.58694,0.139205 0.27841,-4.009106 q 0.22272,-0.946595 0.72386,-1.503415 0.50114,-0.584661 1.36421,-0.890913 z"
       transform="translate(-79.605658,171.21028)" /><path
       style="fill:#784421;fill-opacity:1;stroke:none;stroke-width:0.4;stroke-dasharray:none;stroke-opacity:1"
       d="m 36.46439,220.59305 v 26 h 3.4641 v -24 z"
       id="path79-4" /><path
       style="fill:#784421;fill-opacity:1;stroke:none;stroke-width:0.4;stroke-dasharray:none;stroke-opacity:1"
       d="m 86.69386,220.59305 v 26 h -3.4641 v -24 z"
       id="path80-2" /><path
       style="fill:#784421;fill-opacity:1;stroke:none;stroke-width:0.4;stroke-dasharray:none;stroke-opacity:1"
       d="m 63.31117,234.09305 -3.4641,10 3.4641,16 h -3.4641 l -3.4641,-16 3.4641,-10 1.73205,1 z"
       id="path81-9"
       sodipodi:nodetypes="cccccccc" /><path
       style="fill:#f4a714;fill-opacity:1;stroke:#f4a714;stroke-width:0.499999;stroke-dasharray:none;stroke-opacity:1"
       d="m 66.71119,244.55605 12.99038,-7.5"
       id="path86-7"
       sodipodi:nodetypes="cc" /><path
       d="m 42.549339,244.97507 6.354292,-4.60214 -6.20955,-12.16831 -0.05219,-0.58532 c 1.321505,0.7974 2.558384,1.52879 3.710547,2.194 l 3.191453,1.84262 c 1.820835,1.05128 3.744666,2.14473 5.771787,3.28059 l 0.08552,0.15295 -0.731248,3.84011 -0.487369,-0.19159 -0.758563,-3.69073 -7.37046,-4.25707 5.093146,9.99702 -5.96456,4.3322 8.523288,4.94773 0.77627,-1.80916 0.208115,0.24715 0.735811,4.40587 -0.08474,0.0398 c -2.428114,-1.43582 -4.52366,-2.66578 -6.287399,-3.69028 l -3.101716,-1.80168 c -1.213911,-0.70512 -2.330767,-1.34115 -3.350672,-1.90824 z"
       id="text88-1"
       style="font-size:31.2669px;font-family:Constantia;-inkscape-font-specification:'Constantia, Normal';fill:#e2a147;fill-opacity:1;stroke:#e2a147;stroke-width:1.5;stroke-opacity:1"
       aria-label="Σ"
       sodipodi:nodetypes="ccccsscccccccccccccsscc"
       inkscape:path-effect="#path-effect3"
       inkscape:original-d="m 40.698032,254.82799 8.076263,-9.92358 -7.755655,-10.18311 -0.06107,-0.65649 c 1.659018,0.0407 3.211167,0.0611 4.656447,0.0611 h 3.999968 c 2.27988,0 4.68698,-0.0204 7.22131,-0.0611 l 0.10687,0.12214 -0.91602,5.03812 -0.61069,0.10687 -0.94655,-3.84729 h -9.236564 l 6.366354,8.36634 -7.557183,9.31289 h 10.763263 l 0.97986,-2.70579 0.26192,0.15122 0.92614,4.76829 -0.10687,0.10687 c -3.06359,-0.0305 -5.70988,-0.0458 -7.93886,-0.0458 h -3.92363 c -1.536882,0 -2.951628,0.0153 -4.244237,0.0458 z" /></g></svg>
