<?xml version="1.0" encoding="UTF-8" standalone="no"?>
<!-- Created with Inkscape (http://www.inkscape.org/) -->

<svg
   width="160.26765mm"
   height="60.070496mm"
   viewBox="0 0 160.26765 60.070496"
   version="1.1"
   id="svg1"
   xml:space="preserve"
   sodipodi:docname="IMA logo design.svg"
   inkscape:version="1.4.3 (0d15f75, 2025-12-25)"
   xmlns:inkscape="http://www.inkscape.org/namespaces/inkscape"
   xmlns:sodipodi="http://sodipodi.sourceforge.net/DTD/sodipodi-0.dtd"
   xmlns="http://www.w3.org/2000/svg"
   xmlns:svg="http://www.w3.org/2000/svg"><sodipodi:namedview
     id="namedview1"
     pagecolor="#ffffff"
     bordercolor="#000000"
     borderopacity="0.25"
     inkscape:showpageshadow="2"
     inkscape:pageopacity="0.0"
     inkscape:pagecheckerboard="0"
     inkscape:deskcolor="#d1d1d1"
     inkscape:document-units="mm"
     showgrid="true"
     inkscape:lockguides="false"
     inkscape:zoom="1.4142136"
     inkscape:cx="404.81863"
     inkscape:cy="807.8695"
     inkscape:window-width="1920"
     inkscape:window-height="991"
     inkscape:window-x="-9"
     inkscape:window-y="-9"
     inkscape:window-maximized="1"
     inkscape:current-layer="layer1"><inkscape:grid
       type="axonomgrid"
       id="grid21"
       units="mm"
       originx="-9.6463947"
       originy="-206.34062"
       spacingx="0.99999998"
       spacingy="1"
       empcolor="#0099e5"
       empopacity="0.30196078"
       color="#0099e5"
       opacity="0.14901961"
       empspacing="5"
       dotted="false"
       gridanglex="30"
       gridanglez="30"
       enabled="false"
       visible="true" /><inkscape:page
       x="0"
       y="0"
       width="160.26765"
       height="60.070496"
       id="page2"
       margin="0"
       bleed="0" /></sodipodi:namedview><defs
     id="defs1"><inkscape:path-effect
       effect="perspective-envelope"
       up_left_point="109.52589,52.567654"
       up_right_point="120.78422,46.067654"
       down_left_point="109.52589,61.567654"
       down_right_point="120.78422,55.067654"
       id="path-effect74-9-3-7-4"
       is_visible="true"
       lpeversion="1"
       deform_type="perspective"
       horizontal_mirror="false"
       vertical_mirror="false"
       overflow_perspective="false" /><inkscape:path-effect
       effect="perspective-envelope"
       up_left_point="142.91683,76.882773"
       up_right_point="161.96939,65.882774"
       down_left_point="142.91683,86.882773"
       down_right_point="161.96939,75.882773"
       id="path-effect75-5-1-5-8"
       is_visible="true"
       lpeversion="1"
       deform_type="perspective"
       horizontal_mirror="false"
       vertical_mirror="false"
       overflow_perspective="false" /><inkscape:path-effect
       effect="perspective-envelope"
       up_left_point="42.435244,227.49999"
       up_right_point="55.425624,234.99999"
       down_left_point="42.552914,245.52258"
       down_right_point="55.425624,252.99999"
       id="path-effect3-8"
       is_visible="true"
       lpeversion="1"
       deform_type="perspective"
       horizontal_mirror="false"
       vertical_mirror="false"
       overflow_perspective="false" /></defs><g
     inkscape:label="圖層 1"
     inkscape:groupmode="layer"
     id="layer1"
     transform="translate(-9.6463951,-206.34063)"><path
       style="fill:#e2a147;fill-opacity:1;stroke:none;stroke-width:0.264999;stroke-dasharray:none;stroke-opacity:1"
       d="m 9.6463955,221.34062 25.9807595,-15 25.98076,15 -25.98076,15 z"
       id="path55-1-6-2-5"
       inkscape:export-filename="IMA logo2 with word.png"
       inkscape:export-xdpi="96"
       inkscape:export-ydpi="96" /><path
       style="fill:#996b2c;fill-opacity:1;stroke:none;stroke-width:0.264999;stroke-dasharray:none;stroke-opacity:1"
       d="m 61.607915,221.34062 v 4 l -25.98076,15 -25.9807595,-15 c 0,-1.33333 0,-2.66667 0,-4 l 25.9807595,14.99999 z"
       id="path56-2-5-5-5"
       sodipodi:nodetypes="ccccc" /><ellipse
       style="fill:#784421;stroke:none;stroke-width:0.264999;stroke-dasharray:none;stroke-opacity:1"
       id="path61-1-0-7-1"
       cx="12.244473"
       cy="251.84061"
       rx="1.7320508"
       ry="1.0704662" /><ellipse
       style="fill:#784421;fill-opacity:1;stroke:none;stroke-width:0.264999;stroke-dasharray:none;stroke-opacity:1"
       id="path64-3-2-4-7"
       cx="35.627167"
       cy="265.34064"
       rx="1.7320539"
       ry="1.0704681" /><ellipse
       style="fill:#784421;fill-opacity:1;stroke:none;stroke-width:0.264999;stroke-dasharray:none;stroke-opacity:1"
       id="path65-8-4-4-1"
       cx="59.009842"
       cy="251.84061"
       rx="1.732049"
       ry="1.0704652" /><path
       d="m 110.43382,60.892622 0.36317,-8.933139 -0.90793,0.398492 -0.36317,8.933143 z m 1.2257,-2.216041 -0.0908,1.5608 0.90794,-0.373359 0.0908,-1.560797 z m 7.39963,-2.889493 -0.36317,-8.513791 -0.90793,0.649893 -1.60401,7.53781 -0.78687,-6.283131 -0.90793,0.649892 -1.21057,9.145849 0.49936,-0.01177 0.86253,-6.531502 0.71122,5.446921 0.90792,-0.649887 1.60402,-7.512671 0.28751,6.722273 z m 0.81713,-1.854456 -0.0908,1.560794 0.90792,-0.373349 0.0908,-1.560804 z"
       id="text74-2-5-4-1"
       style="font-size:18.1257px;font-family:'Magic R';-inkscape-font-specification:'Magic R, Normal';fill:#f4a714;fill-opacity:1;stroke:#efb423;stroke-width:0;stroke-opacity:1"
       aria-label="I.M."
       inkscape:path-effect="#path-effect74-9-3-7-4"
       inkscape:original-d="m 111.2135,84.184224 0.72291,-10.652019 -1.80728,-0.153488 -0.72292,10.65202 z m 2.43984,-1.841848 -0.18073,1.841848 1.8073,0.184185 0.18072,-1.841849 z m 14.7294,1.688361 -0.7229,-10.65202 -1.80729,0.153488 -3.19289,8.073432 -1.56631,-8.22692 -1.80729,0.153488 -2.40971,10.314347 0.99401,0.337672 1.71692,-7.367391 1.41572,7.152509 1.80727,-0.153488 3.19289,-8.042735 0.57231,8.411105 z m 1.62656,-1.688361 -0.18071,1.841848 1.80727,0.184185 0.18074,-1.841849 z"
       transform="translate(-67.836555,186.27296)" /><path
       d="m 145.08836,75.769888 -2.17153,10.69035 0.36192,0.213579 0.8014,-3.927474 1.20209,-1.003887 0.11633,3.622976 0.77555,-0.588606 -0.31022,-9.595544 z m 0.0517,1.744798 0.11633,3.397623 -0.96943,0.841394 z m 2.19737,-3.184148 -0.0905,2.756461 -0.56874,0.441036 0.0388,0.850858 0.5041,-0.403718 -0.19389,6.309122 0.73677,-0.284529 0.20681,-6.626444 0.67214,-0.557075 -0.0388,-0.850857 -0.59459,0.484126 0.0646,-2.403509 z m 3.48996,0.294933 c -0.51703,0.298507 -0.93066,0.922289 -1.24088,1.871347 -0.3016,0.925304 -0.4524,1.998285 -0.4524,3.218942 0,1.070423 0.15942,1.832843 0.47825,2.28726 0.31884,0.435639 0.7023,0.524105 1.1504,0.265399 0.43085,-0.248756 0.78416,-0.687478 1.05991,-1.316167 0.28436,-0.652441 0.48687,-1.492361 0.60751,-2.519758 l -0.56873,0.610046 c -0.0603,0.579428 -0.18958,1.0672 -0.38778,1.463318 -0.18957,0.372363 -0.405,0.628196 -0.64628,0.7675 -0.23267,0.134328 -0.44379,0.05904 -0.63337,-0.225878 -0.18957,-0.284914 -0.29298,-0.807371 -0.31022,-1.567373 l 2.48175,-2.024385 c 0,-1.126761 -0.13787,-1.948568 -0.41362,-2.465421 -0.26714,-0.521826 -0.64198,-0.643436 -1.12454,-0.36483 z m 0,0.957746 c 0.23266,-0.134327 0.42223,-0.07476 0.56873,0.178686 0.15511,0.248476 0.23697,0.727033 0.24559,1.435673 l -1.75791,1.409292 c 0.0345,-0.827413 0.13788,-1.497444 0.31022,-2.010092 0.17235,-0.531427 0.38347,-0.869281 0.63337,-1.013559 z m 3.30899,4.48392 -0.0388,-0.822689 -0.31022,0.235442 0.25851,-8.909816 -0.73676,0.340869 -0.28437,10.051502 z m 0.73676,-9.946497 0.0517,1.519443 0.73677,-0.566219 -0.0517,-1.519443 z m 0.0259,3.055491 -0.19389,6.675322 0.73677,-0.284528 0.19388,-6.675319 z m 3.05048,-2.662601 c -0.51703,0.298508 -0.93066,0.92229 -1.24088,1.871347 -0.30159,0.925303 -0.45239,1.998282 -0.45239,3.21894 0,1.070422 0.15941,1.832843 0.47824,2.287262 0.31884,0.435639 0.7023,0.524105 1.1504,0.2654 0.43085,-0.248756 0.78416,-0.687479 1.05991,-1.316168 0.28437,-0.652441 0.48687,-1.49236 0.60751,-2.519758 l -0.56873,0.610047 c -0.0603,0.579427 -0.18958,1.0672 -0.38778,1.463317 -0.18957,0.372363 -0.405,0.628196 -0.64628,0.7675 -0.23267,0.134329 -0.44379,0.05904 -0.63336,-0.225878 -0.18958,-0.284913 -0.29299,-0.807371 -0.31023,-1.567373 l 2.48175,-2.024385 c 0,-1.12676 -0.13787,-1.948567 -0.41362,-2.46542 -0.26713,-0.521828 -0.64198,-0.643438 -1.12454,-0.364831 z m 0,0.957746 c 0.23266,-0.134328 0.42224,-0.07477 0.56873,0.178687 0.15511,0.248475 0.23697,0.727033 0.24559,1.435672 l -1.75791,1.409293 c 0.0345,-0.827414 0.13788,-1.497445 0.31023,-2.010092 0.17234,-0.531428 0.38346,-0.869281 0.63336,-1.01356 z m 3.91649,-2.82457 c -0.13787,0.117158 -0.28867,0.298119 -0.45239,0.542882 -0.15511,0.239787 -0.26714,0.454699 -0.33608,0.644735 l 0.0259,-0.803662 -0.73676,0.284526 -0.23266,7.401934 0.73676,-0.284529 0.12926,-4.130964 c 0.0689,-0.678298 0.18096,-1.250016 0.33607,-1.715155 0.15511,-0.483918 0.36623,-0.906279 0.63336,-1.26708 z"
       id="text75-7-0-4-5"
       style="font-size:14.2546px;font-family:'Magic R';-inkscape-font-specification:'Magic R, Normal';fill:#f4a714;fill-opacity:1;stroke:#000000;stroke-width:0"
       aria-label="Atelier"
       inkscape:path-effect="#path-effect75-5-1-5-8"
       inkscape:original-d="m 149.83508,80.062529 -4.67729,9.32674 0.77955,0.417615 1.72614,-3.424445 2.58921,-0.306251 0.25057,3.647173 1.67046,-0.139205 -0.66818,-9.660832 z m 0.11136,1.753984 0.25057,3.424444 -2.08808,0.278411 z m 4.73297,-1.893189 -0.19488,2.672737 -1.22501,0.111364 0.0835,0.863072 1.08579,-0.111364 -0.41761,6.125023 1.58694,0.139205 0.44545,-6.431275 1.44774,-0.167046 -0.0835,-0.863071 -1.28068,0.139205 0.1392,-2.338645 z m 7.51708,2.282963 q -1.67046,0 -2.67274,1.141481 -0.97444,1.113641 -0.97444,2.923307 0,1.586938 1.03012,2.533532 1.03012,0.918754 2.47785,0.918754 1.39205,0 2.28297,-0.696026 0.91875,-0.723866 1.30852,-2.143758 l -1.225,0.27841 q -0.19489,0.80739 -0.83523,1.225005 -0.6125,0.389774 -1.39205,0.389774 -0.75171,0 -1.36421,-0.584661 -0.6125,-0.584661 -0.66819,-1.726143 l 5.34548,-0.584661 q 0,-1.670461 -0.89091,-2.672738 -0.86308,-1.002276 -2.42217,-1.002276 z m 0,0.946594 q 0.7517,0 1.225,0.501139 0.50114,0.501138 0.52898,1.559096 l -3.78638,0.389775 q 0.11137,-1.197164 0.66819,-1.809666 0.55682,-0.640344 1.36421,-0.640344 z m 7.1273,6.319911 -0.0835,-0.835231 -0.66819,0.05568 0.55682,-8.658555 -1.58694,-0.08352 -0.6125,9.772196 z m 1.58693,-9.410263 0.11137,1.531256 1.58694,-0.139206 -0.11137,-1.531255 z m 0.0557,3.03467 -0.41762,6.486957 1.58694,0.139205 0.41761,-6.486957 z m 6.57048,-0.890912 q -1.67046,0 -2.67274,1.141481 -0.97443,1.113641 -0.97443,2.923307 0,1.586938 1.03011,2.533532 1.03012,0.918754 2.47785,0.918754 1.39205,0 2.28297,-0.696026 0.91875,-0.723866 1.30852,-2.143758 l -1.225,0.27841 q -0.19489,0.80739 -0.83523,1.225005 -0.6125,0.389774 -1.39205,0.389774 -0.75171,0 -1.36421,-0.584661 -0.6125,-0.584661 -0.66819,-1.726143 l 5.34548,-0.584661 q 0,-1.670461 -0.89091,-2.672738 -0.86307,-1.002276 -2.42217,-1.002276 z m 0,0.946594 q 0.75171,0 1.225,0.501139 0.50114,0.501138 0.52898,1.559096 l -3.78638,0.389775 q 0.11137,-1.197164 0.66819,-1.809666 0.55682,-0.640344 1.36421,-0.640344 z m 8.43582,-0.55682 q -0.44545,0.05568 -0.97443,0.27841 -0.50114,0.222728 -0.72387,0.445456 l 0.0557,-0.779548 -1.58693,-0.139205 -0.50114,7.182982 1.58694,0.139205 0.27841,-4.009106 q 0.22272,-0.946595 0.72386,-1.503415 0.50114,-0.584661 1.36421,-0.890913 z"
       transform="translate(-105.55762,176.45784)" /><path
       style="fill:#784421;fill-opacity:1;stroke:none;stroke-width:0.4;stroke-dasharray:none;stroke-opacity:1"
       d="m 10.512426,225.84061 v 26 h 3.464099 v -24 z"
       id="path79-4-2" /><path
       style="fill:#784421;fill-opacity:1;stroke:none;stroke-width:0.4;stroke-dasharray:none;stroke-opacity:1"
       d="m 60.741896,225.84061 v 26 h -3.4641 v -24 z"
       id="path80-2-7" /><path
       style="fill:#784421;fill-opacity:1;stroke:none;stroke-width:0.4;stroke-dasharray:none;stroke-opacity:1"
       d="m 37.359206,239.34061 -3.464101,10 3.464101,16 h -3.464101 l -3.4641,-16 3.4641,-10 1.73205,1 z"
       id="path81-9-6"
       sodipodi:nodetypes="cccccccc" /><path
       style="fill:#f4a714;fill-opacity:1;stroke:#f4a714;stroke-width:0.499999;stroke-dasharray:none;stroke-opacity:1"
       d="m 40.759225,249.80361 12.99038,-7.5"
       id="path86-7-1"
       sodipodi:nodetypes="cc" /><path
       d="m 42.549339,244.97507 6.354292,-4.60214 -6.20955,-12.16831 -0.05219,-0.58532 c 1.321505,0.7974 2.558384,1.52879 3.710547,2.194 l 3.191453,1.84262 c 1.820835,1.05128 3.744666,2.14473 5.771787,3.28059 l 0.08552,0.15295 -0.731248,3.84011 -0.487369,-0.19159 -0.758563,-3.69073 -7.37046,-4.25707 5.093146,9.99702 -5.96456,4.3322 8.523288,4.94773 0.77627,-1.80916 0.208115,0.24715 0.735811,4.40587 -0.08474,0.0398 c -2.428114,-1.43582 -4.52366,-2.66578 -6.287399,-3.69028 l -3.101716,-1.80168 c -1.213911,-0.70512 -2.330767,-1.34115 -3.350672,-1.90824 z"
       id="text88-1-4"
       style="font-size:31.2669px;font-family:Constantia;-inkscape-font-specification:'Constantia, Normal';fill:#e2a147;fill-opacity:1;stroke:#e2a147;stroke-width:1.5;stroke-opacity:1"
       aria-label="Σ"
       sodipodi:nodetypes="ccccsscccccccccccccsscc"
       inkscape:path-effect="#path-effect3-8"
       inkscape:original-d="m 40.698032,254.82799 8.076263,-9.92358 -7.755655,-10.18311 -0.06107,-0.65649 c 1.659018,0.0407 3.211167,0.0611 4.656447,0.0611 h 3.999968 c 2.27988,0 4.68698,-0.0204 7.22131,-0.0611 l 0.10687,0.12214 -0.91602,5.03812 -0.61069,0.10687 -0.94655,-3.84729 h -9.236564 l 6.366354,8.36634 -7.557183,9.31289 h 10.763263 l 0.97986,-2.70579 0.26192,0.15122 0.92614,4.76829 -0.10687,0.10687 c -3.06359,-0.0305 -5.70988,-0.0458 -7.93886,-0.0458 h -3.92363 c -1.536882,0 -2.951628,0.0153 -4.244237,0.0458 z"
       transform="translate(-25.951965,5.2475662)" /><g
       id="g5"
       transform="translate(-2.5372364,-0.64584449)"><g
         id="g4"
         transform="matrix(0.80684482,0,0,0.80684482,15.143464,42.684447)"><path
           style="font-weight:normal;font-size:32.5017px;font-family:NaikaiFont;-inkscape-font-specification:'NaikaiFont, Normal';fill:#e2a147;fill-opacity:1;stroke:#150e03;stroke-width:0;stroke-opacity:1"
           d="m 70.98135,252.92521 -0.634799,-0.3174 q -0.380879,-0.50784 -0.317399,-1.20612 0.698278,-2.09484 1.110898,-3.82466 0.412619,-1.72983 0.539579,-4.01511 l -1.269598,1.01568 q -0.507839,0.38088 -1.206118,0.3174 l -0.634799,-0.3174 q -0.380879,-0.50784 -0.317399,-1.20612 l 0.317399,-0.6348 q 0.825239,-0.57131 3.300954,-2.22179 l 0.12696,-2.72964 -2.475716,-1.39655 q -0.380879,-0.50784 -0.317399,-1.20612 l 0.317399,-0.6348 q 0.50784,-0.38088 1.206118,-0.3174 l 1.396558,0.6348 v -6.44321 q -0.09522,-1.23786 0.745888,-1.47591 0.841109,-0.23805 10.331352,-0.0476 -0.19044,-1.2696 0.380879,-2.22179 0.444359,-0.38088 1.142638,-0.3174 l 0.634799,0.3174 q 0.507839,0.95219 0.317399,2.22179 l 9.934602,-0.12696 0.634799,0.3174 q 0.38088,0.44436 0.3174,1.14264 l -0.3174,0.6348 q -0.698278,0.44436 -1.586997,0.38088 -0.888718,-0.0635 -20.059644,0.19044 -0.06348,4.15793 -0.126959,7.96672 -0.06348,3.8088 -0.50784,7.9826 -0.444359,4.1738 -1.840916,7.22084 -0.444359,0.38088 -1.142638,0.3174 z"
           id="path4" /><g
           id="g3"><path
             id="path35"
             style="font-weight:normal;font-size:32.5017px;font-family:NaikaiFont;-inkscape-font-specification:'NaikaiFont, Normal';fill:#e2a147;fill-opacity:1;stroke:#150e03;stroke-width:0;stroke-opacity:1"
             d="m 115.35833,223.7233 c -0.0426,-0.002 -0.0863,-0.002 -0.13125,0.001 -0.35972,0 -0.65608,0.12693 -0.88884,0.38085 l -0.34933,0.34934 v 5.7769 c -1.18496,0.0212 -2.38567,0.0419 -3.60237,0.063 -1.2167,0.0212 -2.45989,0.0953 -3.72948,0.22221 -0.16928,0.14812 -0.3387,0.32842 -0.50798,0.54002 -0.25392,1.41771 -0.33837,2.69743 -0.25373,3.84007 0.0846,1.14264 0.0846,2.16357 0,3.06287 -0.0846,0.8993 0.21171,1.63474 0.88883,2.20606 1.24843,0.38088 2.5494,0.52906 3.90364,0.44442 1.12148,0.0211 2.28566,0.0528 3.49177,0.0951 l 2.50734,-0.0315 c 3.40676,-0.0635 5.5701,-0.058 6.49056,0.016 0.92046,0.0741 1.73,-0.15364 2.42828,-0.68264 0.23276,-1.41772 0.31229,-2.69796 0.23823,-3.8406 -0.0741,-1.14264 -0.0637,-2.23221 0.0315,-3.26905 0.0952,-1.03684 -0.33299,-1.74561 -1.28519,-2.12648 -2.24296,-0.3809 -4.95161,-0.55032 -8.1256,-0.50798 v -1.80919 c 3.49139,-0.1058 6.45392,-0.053 8.88731,0.15864 0.48668,0.16928 0.90945,0.0739 1.26917,-0.28577 0.6348,-0.88872 0.47626,-1.58712 -0.47594,-2.09496 -2.77195,-0.27508 -5.99871,-0.35953 -9.68054,-0.25373 v -0.76171 c 0.0635,-0.44436 -0.0635,-0.81481 -0.38086,-1.11105 -0.18515,-0.24067 -0.42698,-0.36798 -0.72554,-0.38188 z m -6.98717,8.72969 c 4.93028,-0.0846 9.93465,-0.0318 15.01304,0.15865 v 1.80919 l -15.01304,-0.19068 z m 0,3.87212 15.01304,0.19069 v 2.06292 c -5.88247,0 -9.65454,-0.0212 -11.31559,-0.0636 -1.66106,-0.0423 -2.89337,-0.0739 -3.69745,-0.0951 z m 8.31577,4.34857 -2.50734,0.0315 v 2.19005 c -1.56583,-0.0212 -5.15267,-0.0952 -10.76006,-0.22221 -0.65596,-0.16928 -1.21655,-0.0631 -1.68207,0.31781 -0.65595,1.01568 -0.41296,1.71357 0.72967,2.09445 1.3754,0.1058 4.25347,0.21201 8.63358,0.31781 -1.14264,0.88872 -2.169,1.63945 -3.07888,2.25309 -0.90987,0.61363 -2.06318,1.42862 -3.45974,2.4443 -0.78292,0.33856 -1.2803,0.91002 -1.4919,1.7141 0.0423,0.69828 0.42365,1.11069 1.14309,1.23765 0.90988,-0.27508 1.71397,-0.72997 2.41225,-1.36477 0.8464,-0.61364 1.72951,-1.23795 2.64997,-1.87275 0.92046,-0.6348 1.75124,-1.23244 2.49184,-1.79318 0.74059,-0.56073 1.62915,-1.13764 2.66599,-1.73012 l 0.0636,6.79235 c 0.12696,0.1058 0.25389,0.22238 0.38085,0.34933 0.529,0.48667 1.08959,0.51828 1.68207,0.0951 0.12696,-0.1058 0.2539,-0.2115 0.38086,-0.31729 l 0.0951,-6.28437 c 1.22727,0.84639 2.29613,1.59221 3.20601,2.23759 0.90988,0.64538 1.86707,1.23757 2.87217,1.77715 1.0051,0.53958 2.1742,1.23254 3.50728,2.07894 0.69828,0.61364 1.39668,0.667 2.09496,0.15917 0.46552,-0.48668 0.508,-1.0053 0.12713,-1.55546 -0.3174,-0.33856 -0.68784,-0.62404 -1.11104,-0.8568 -1.33308,-0.82524 -2.49131,-1.49748 -3.47525,-2.0159 -0.98393,-0.51842 -1.86756,-1.06321 -2.65048,-1.63452 -0.78292,-0.57132 -1.57665,-1.18476 -2.38073,-1.84072 4.48591,0.0635 7.51216,0.106 9.078,0.12713 0.1058,-0.12696 0.23273,-0.25441 0.38085,-0.38137 0.57133,-0.57132 0.59256,-1.15315 0.0636,-1.74563 -0.14812,-0.12696 -0.27505,-0.24302 -0.38085,-0.34882 -1.92556,-0.0212 -3.86172,-0.0479 -5.80843,-0.0796 -1.94672,-0.0317 -3.89376,-0.10039 -5.84047,-0.20619 z" /><path
             style="font-weight:normal;font-size:32.5017px;font-family:NaikaiFont;-inkscape-font-specification:'NaikaiFont, Normal';fill:#e2a147;fill-opacity:1;stroke:#150e03;stroke-width:0;stroke-opacity:1"
             d="m 83.137748,236.0713 q -1.079158,-0.0635 -2.856595,-0.0952 -1.777437,-0.0317 -2.602675,-0.82524 -0.825239,-0.7935 -0.952199,-2.03136 -0.126959,-1.23786 -0.190439,-2.53919 l 0.380879,-0.69828 q 0.3174,-0.25392 0.825239,-0.19044 0.444359,0.19044 0.634799,0.6348 l 0.06348,0.98393 6.284509,-0.60305 q 0.444359,0.22218 0.634799,0.66653 v 0.57132 q -0.19044,0.44436 -0.634799,0.6348 l -6.094069,0.57132 q 0.539579,0.9522 1.793307,1.01568 1.253728,0.0635 2.618545,0.0317 1.364818,-0.0317 2.507456,0.34914 0.253919,0.3174 0.190439,0.82524 -0.190439,0.44436 -0.634799,0.6348 z"
             id="path31" /><path
             style="font-weight:normal;font-size:32.5017px;font-family:NaikaiFont;-inkscape-font-specification:'NaikaiFont, Normal';fill:#e2a147;fill-opacity:1;stroke:#150e03;stroke-width:0;stroke-opacity:1"
             d="m 79.011555,246.67244 q -1.174378,-0.0635 -1.015678,-1.46004 v -7.17323 q -0.1587,-1.49177 0.888719,-1.46003 l 5.967109,0.0635 q 0.444359,0.19044 0.634799,0.6348 0.190439,7.61759 0.04761,8.50631 -0.14283,0.88872 -0.793499,0.88872 -0.650669,0 -5.72906,0 z m 4.697512,-1.96788 v -1.01568 l -3.872273,0.0635 v 1.07916 z m 0.06348,-2.85659 v -0.82524 l -3.935753,-0.0635 v 0.9522 z m -0.12696,-2.66616 v -0.69828 l -3.808793,-0.0635 v 0.69828 z"
             id="path30" /><path
             style="font-weight:normal;font-size:32.5017px;font-family:NaikaiFont;-inkscape-font-specification:'NaikaiFont, Normal';fill:#e2a147;fill-opacity:1;stroke:#150e03;stroke-width:0;stroke-opacity:1"
             d="m 88.025699,248.22769 q -0.983938,-0.0317 -0.952198,-0.98393 -0.09522,-11.48986 -0.09522,-12.17227 0,-0.68241 1.015678,-0.68241 l 1.110898,-0.0952 0.380879,-1.39656 -2.666155,0.0635 -0.698278,-0.38088 q -0.25392,-0.3174 -0.19044,-0.82524 0.19044,-0.4761 0.634799,-0.66653 l 8.601524,-0.25392 q 0.444359,0.19044 0.634799,0.63479 v 0.53958 q -0.19044,0.44436 -0.634799,0.6348 l -3.586613,0.12696 -0.571319,1.46004 h 3.967493 q 0.730018,-0.0635 0.634798,0.92046 -0.190439,11.77552 -0.317399,12.41032 -0.12696,0.63479 -1.396557,0.53957 z m 5.42753,-2.06309 0.25392,-3.23748 h -4.792732 v 3.11052 z m 0.19044,-5.20535 0.06348,-1.77744 -4.792732,0.0635 v 1.84092 h 4.538812 z m 0.06348,-3.61836 v -1.26959 l -4.919691,0.0635 v 1.26959 z"
             id="path29" /><path
             style="font-weight:normal;font-size:32.5017px;font-family:NaikaiFont;-inkscape-font-specification:'NaikaiFont, Normal';fill:#e2a147;fill-opacity:1;stroke:#150e03;stroke-width:0;stroke-opacity:1"
             d="m 84.216906,249.43381 -7.808026,-0.12696 q -1.142638,-0.0952 -1.126768,-0.90459 0.01587,-0.80936 -0.17457,-7.95085 l 0.38088,-0.69828 q 0.349139,-0.25392 0.856978,-0.19044 0.444359,0.19044 0.634799,0.6348 l 0.25392,7.20497 7.236707,0.12696 0.698278,0.38087 q 0.25392,0.3174 0.19044,0.82524 -0.19044,0.44436 -0.634799,0.6348 z"
             id="path28" /><path
             style="font-weight:normal;font-size:32.5017px;font-family:NaikaiFont;-inkscape-font-specification:'NaikaiFont, Normal';fill:#e2a147;fill-opacity:1;stroke:#150e03;stroke-width:0;stroke-opacity:1"
             d="m 96.468524,253.17913 -0.761759,-0.25392 q -1.428297,-1.01568 -2.602675,-1.77744 l -0.12696,-0.53958 q 0.1587,-0.4761 0.539579,-0.76176 l 0.571319,-0.0952 q 0.730019,0.38088 1.650477,0.88872 0.920459,0.50784 1.428298,1.20612 l 0.09522,0.4761 q -0.09522,0.4761 -0.507839,0.76176 z"
             id="path27" /><path
             style="font-weight:normal;font-size:32.5017px;font-family:NaikaiFont;-inkscape-font-specification:'NaikaiFont, Normal';fill:#e2a147;fill-opacity:1;stroke:#150e03;stroke-width:0;stroke-opacity:1"
             d="m 83.899507,252.73477 q -1.079159,-0.6348 -2.221796,-1.20612 -0.25392,-0.3174 -0.19044,-0.82524 0.19044,-0.44436 0.634799,-0.6348 h 0.634799 q 1.142638,0.3174 2.094836,1.20612 0.253919,0.3174 0.190439,0.82524 -0.190439,0.44436 -0.634798,0.6348 z"
             id="path26" /><path
             style="font-weight:normal;font-size:32.5017px;font-family:NaikaiFont;-inkscape-font-specification:'NaikaiFont, Normal';fill:#e2a147;fill-opacity:1;stroke:#150e03;stroke-width:0;stroke-opacity:1"
             d="m 86.660882,252.92521 q -0.34914,-0.34914 -0.38088,-0.82524 l 0.19044,-0.4761 q 1.682217,-1.20612 2.951815,-1.96788 0.380879,-0.12696 0.856978,0.0952 0.349139,0.34914 0.380879,0.82524 l -0.190439,0.53958 q -1.110898,0.82524 -2.824855,1.87266 -0.476099,0.19044 -0.983938,-0.0635 z"
             id="path25" /><path
             style="font-weight:normal;font-size:32.5017px;font-family:NaikaiFont;-inkscape-font-specification:'NaikaiFont, Normal';fill:#e2a147;fill-opacity:1;stroke:#150e03;stroke-width:0;stroke-opacity:1"
             d="m 75.869301,252.86171 -0.571319,-0.53958 q -0.19044,-0.34914 0,-0.82524 0.698279,-0.76176 2.317016,-1.55526 0.476099,-0.25392 1.079158,-0.0635 0.380879,0.28566 0.476099,0.76176 l -0.1587,0.57132 -2.317015,1.587 q -0.34914,0.0952 -0.825239,0.0635 z"
             id="path23" /><path
             style="font-weight:bold;font-size:32.5017px;font-family:NaikaiFont;-inkscape-font-specification:'NaikaiFont, Bold';fill:#e2a147;fill-opacity:1;stroke:#150e03;stroke-width:0;stroke-opacity:1"
             d="m 136.39737,249.24337 c -0.48668,-0.0529 -0.92046,-0.22221 -1.30134,-0.50784 l -0.0317,-0.0159 -0.0159,-0.0317 c -0.31739,-0.35972 -0.44964,-0.83053 -0.39675,-1.41242 v -0.0635 l 0.0317,-0.0476 0.3174,-0.6348 0.0317,-0.0635 0.0635,-0.0476 c 0.44436,-0.33856 0.96278,-0.46552 1.55526,-0.38088 h 9.64894 c 0,0 -3.08791,-4.53339 -3.05692,-7.11428 0.0281,-2.34339 2.92992,-6.39107 2.92992,-6.39107 l -7.37953,0.30153 h -0.0317 -0.0159 c -0.40204,-0.0529 -0.75647,-0.20634 -1.06329,-0.46023 l -0.0159,-0.0159 -0.0159,-0.0159 c -0.3174,-0.35972 -0.44965,-0.83053 -0.39675,-1.41242 v -0.0635 l 0.0317,-0.0476 0.3174,-0.6348 0.0476,-0.11109 0.11109,-0.0317 c 0.76176,-0.3174 1.587,-0.49726 2.47571,-0.53958 0.85698,-0.0423 6.26335,-0.0847 16.21912,-0.12696 h 0.0635 l 0.0794,0.0317 0.66653,0.3174 0.0635,0.0317 0.0476,0.0635 c 0.30682,0.40204 0.43378,0.87814 0.38088,1.42829 v 0.0476 l -0.0317,0.0635 -0.3174,0.66654 -0.0476,0.0952 -0.0952,0.0476 -0.66653,0.3174 -0.0635,0.0317 h -0.0794 -7.17323 c 0,0 -2.90284,4.05884 -2.92992,6.40709 -0.0298,2.58086 3.05692,7.11413 3.05692,7.11413 l 10.31548,0.0635 h 0.0794 l 0.0635,0.0317 0.6348,0.3174 0.0635,0.0317 0.0317,0.0476 c 0.1058,0.12696 0.19044,0.2645 0.25392,0.41262 0.0635,0.14812 0.10579,0.30682 0.12696,0.4761 0.0211,0.1587 0.0264,0.33327 0.0159,0.5237 v 0.0635 l -0.0317,0.0476 -0.3174,0.6348 -0.0317,0.0635 -0.0635,0.0476 c -0.11638,0.0846 -0.23276,0.1587 -0.34914,0.22218 -0.11638,0.0529 -0.23805,0.10054 -0.36501,0.14283 -0.12696,0.0317 -0.25921,0.0582 -0.39675,0.0794 h -0.0159 -0.0159 -22.97972 -0.0159 z"
             id="path5"
             sodipodi:nodetypes="ccccccccccccsccccccccccccccccccccccccccccccscccccccsccccccccccccccc" /><path
             style="font-weight:normal;font-size:32.5017px;font-family:NaikaiFont;-inkscape-font-specification:'NaikaiFont, Normal';fill:#e2a147;fill-opacity:1;stroke:#150e03;stroke-width:0;stroke-opacity:1"
             d="m 189.68874,253.94088 q -0.50784,-0.0635 -0.88872,-0.38088 l -0.73002,-0.69827 -15.96519,0.57131 q -0.50784,-0.0635 -0.88872,-0.38087 -0.38088,-0.44436 -0.3174,-1.14264 0.25392,-0.6348 0.76176,-1.14264 l 1.87265,-1.96788 h -6.57016 l -0.69828,-0.38088 q -0.25392,-0.3174 -0.19044,-0.82523 0.19044,-0.44436 0.6348,-0.66654 l 26.78851,0.22218 q 0.44436,0.19044 0.6348,0.63479 v 0.50784 q -0.19044,0.44436 -0.6348,0.6348 h -6.06233 q 1.80918,1.65048 3.45965,3.23748 l 0.0635,0.76176 -0.3174,0.63479 q -0.44436,0.3174 -0.95219,0.38088 z m -4.47534,-3.49139 q -0.25392,-0.38088 -0.19044,-0.9522 l 0.25392,-0.6348 -8.25238,-0.0635 -1.77744,2.03136 z m -11.29942,-4.60229 q -2.12657,0.0635 -3.01529,-0.38088 -0.25392,-0.3174 -0.19044,-0.82524 0.19044,-0.44436 0.6348,-0.6348 l 17.13957,0.19044 q 0.44436,0.19044 0.6348,0.6348 v 0.50784 q -0.19044,0.44436 -0.6348,0.6348 l -0.34914,0.0635 z m 18.50439,-2.2218 q -0.6348,-0.19044 -1.07916,-0.69828 -1.65047,-1.77743 -1.87265,-4.15793 -0.22218,-2.38049 -0.28566,-4.72925 l -1.80918,0.0635 q -0.0635,1.07916 -0.22218,2.09484 -0.1587,1.01567 -0.34914,2.03135 1.14264,0.82524 2.0631,1.9044 v 0.57132 q -0.19044,0.44436 -0.66654,0.6348 h -0.50784 l -1.77744,-1.33308 q -0.98394,1.36482 -2.03135,2.47571 -0.50784,0.44436 -1.2696,0.38088 l -0.6348,-0.3174 q -0.38088,-0.44435 -0.3174,-1.14263 l 0.3174,-0.6348 q 1.1109,-1.17438 1.9044,-2.34876 l -1.65048,-1.14264 q -0.25392,-0.3174 -0.19044,-0.82523 0.19044,-0.44436 0.6348,-0.6348 h 0.57132 l 1.33307,0.76176 q 0.28566,-1.55526 0.3174,-2.47572 -1.52351,0.0635 -2.85659,-0.38088 -0.44436,-0.50784 -0.38088,-1.20612 l 0.3174,-0.6348 q 1.20612,-0.50784 2.98355,-0.25392 -0.0635,-0.88871 0.12696,-1.74569 -0.57132,0.44436 -1.26959,0.38088 l -0.6348,-0.3174 q -0.38088,-0.50784 -0.38088,-1.14264 l 0.0635,-0.38088 h -5.20535 q 0.0635,0.69828 -0.3174,1.20612 -0.50784,0.38088 -1.20612,0.3174 l -0.6348,-0.3174 q -0.44436,-0.50784 -0.44436,-1.14264 l -7.58584,-0.0635 q -0.50784,-0.0635 -0.88872,-0.38088 -0.38088,-0.44436 -0.3174,-1.14264 l 0.3174,-0.6348 0.6348,-0.3174 7.58584,-0.0635 -0.19044,-0.76175 q 0.0635,-0.50784 0.38088,-0.88872 0.44436,-0.38088 1.14264,-0.3174 l 0.6348,0.3174 q 0.50784,0.69828 0.50784,1.65047 l 5.77667,0.0635 q -0.12696,-1.01567 0.38088,-1.71395 0.44436,-0.38088 1.14263,-0.3174 l 0.6348,0.3174 q 0.50784,0.69828 0.3174,1.71395 l 7.77629,0.12696 0.6348,0.3174 q 0.38088,0.44436 0.3174,1.14264 l -0.3174,0.6348 q -0.69828,0.44436 -1.61874,0.41262 -0.92046,-0.0317 -6.98279,-0.1587 v 1.07916 q 0.44436,-0.44436 1.14264,-0.38088 l 0.6348,0.3174 q 0.50784,0.9522 0.3174,2.19005 l 3.33269,-0.0635 0.6348,0.3174 q 0.44436,0.6348 0.3174,1.46004 0.0635,3.49139 0.1587,4.57055 0.0952,1.07916 0.41262,2.03136 h 0.12696 l 0.44436,-0.76176 q 0.44436,-0.38088 1.14264,-0.3174 l 0.6348,0.3174 q 0.38088,0.50784 0.3174,1.20612 -0.57132,1.46004 -1.33308,2.85659 -0.50784,0.44436 -1.20612,0.38088 z m -24.37628,-0.12696 -0.69827,-0.38088 q -0.25392,-0.3174 -0.19044,-0.82524 0.19044,-0.44435 0.6348,-0.63479 1.33307,0 2.63441,-0.1587 1.30134,-0.1587 2.60268,-0.34914 l 0.0635,-1.14264 q -1.04742,-0.0635 -2.09484,-0.0317 -1.04742,0.0317 -1.93614,-0.41262 -0.25392,-0.3174 -0.19044,-0.82524 l 0.25392,-0.50784 -1.39655,0.19044 -0.69828,-0.38088 q -0.25392,-0.3174 -0.19044,-0.82524 0.19044,-0.44436 0.6348,-0.63479 0.82523,-0.0635 1.65047,-0.25392 0.82524,-0.19044 1.77744,-1.2696 -1.07916,-0.12696 -2.19006,-0.0952 -1.11089,0.0317 -2.06309,-0.34914 -0.25392,-0.3174 -0.19044,-0.82524 0.19044,-0.44436 0.69828,-0.69828 l 5.80841,0.12696 v -0.88872 h -4.47534 q -0.44436,-0.19044 -0.63479,-0.6348 v -0.57132 q 0.19043,-0.47609 0.63479,-0.66653 l 0.38088,-0.0635 4.09446,0.0635 q -0.0635,-0.69828 0.38088,-1.20612 0.38087,-0.25392 0.88871,-0.19044 0.44436,0.19044 0.6348,0.6348 l -0.0635,0.76176 4.44359,-0.0635 q 0.44436,0.19044 0.6348,0.66654 v 0.50783 q -0.19044,0.44436 -0.6348,0.6348 l -4.44359,0.12696 v 0.9522 l 5.84015,-0.12696 q 0.44436,0.19044 0.6348,0.6348 v 0.57132 q -0.19044,0.50784 -0.69828,0.69828 l -0.3174,0.0635 h -2.72963 q -0.0635,0.7935 0.42849,0.74589 0.49197,-0.0476 2.23766,-0.23805 0.44436,0.19044 0.6348,0.6348 v 0.50783 q -0.19044,0.50784 -0.69828,0.69828 -2.06309,0.0952 -2.79311,0.0159 -0.73002,-0.0794 -1.22199,-0.61893 -0.49197,-0.53957 -0.49197,-1.74569 l -2.60267,-0.0635 q -0.38088,1.07916 -1.19025,1.84091 -0.80937,0.76176 -1.63461,1.07916 l 2.88834,0.19044 q -0.12696,-0.9522 0.38087,-1.58699 0.3174,-0.25392 0.82524,-0.19044 0.50784,0.19044 0.76176,0.69827 l -0.12696,1.14264 h 3.99924 q 0.44435,0.19044 0.63479,0.6348 v 0.50784 q -0.19044,0.44436 -0.63479,0.6348 l -0.3174,0.0635 h -3.68184 v 0.82524 l 4.88795,-0.38088 q 0.44436,0.19044 0.6348,0.6348 v 0.57132 q -0.19044,0.44436 -0.6348,0.63479 -2.98355,0.12696 -5.88776,0.53958 -2.9042,0.41262 -5.88776,0.60306 z"
             id="path6" /></g></g><text
         xml:space="preserve"
         style="font-weight:500;font-size:6.55635px;font-family:'GenSenRounded2 TW';-inkscape-font-specification:'GenSenRounded2 TW, Medium';writing-mode:lr-tb;direction:ltr;fill:#996b2c;fill-opacity:1;stroke:#150e03;stroke-width:0"
         x="73.1819"
         y="270.36517"
         id="text4"
         transform="scale(1.0629195,0.940805)"><tspan
           sodipodi:role="line"
           id="tspan4"
           style="fill:#996b2c;fill-opacity:1;stroke-width:0"
           x="73.1819"
           y="270.36517">Insantable Mastery Atelier</tspan></text></g></g></svg>
